<?xml version="1.0" standalone="no"?>
<!DOCTYPE svg PUBLIC "-//W3C//DTD SVG 20010904//EN"
 "http://www.w3.org/TR/2001/REC-SVG-20010904/DTD/svg10.dtd">
<svg version="1.0" xmlns="http://www.w3.org/2000/svg"
 width="1445.000000pt" height="1445.000000pt" viewBox="0 0 1445.000000 1445.000000"
 preserveAspectRatio="xMidYMid meet">
<metadata>
Created by potrace 1.14, written by Peter Selinger 2001-2017
</metadata>
<g transform="translate(0.000000,1445.000000) scale(0.100000,-0.100000)"
fill="#000000" stroke="none">
<path d="M10168 12705 c-1 -1 -50 -6 -108 -9 -58 -4 -123 -9 -145 -11 -22 -2
-65 -7 -95 -10 -30 -3 -102 -12 -160 -20 -58 -9 -118 -17 -135 -19 -24 -3
-113 -21 -307 -61 -62 -13 -266 -71 -370 -106 -356 -119 -681 -286 -958 -492
-52 -39 -97 -73 -100 -76 -3 -3 -36 -33 -75 -65 -229 -194 -479 -495 -635
-766 -202 -348 -374 -835 -446 -1260 -3 -14 -9 -50 -14 -80 -5 -30 -12 -71
-14 -90 -3 -19 -9 -69 -15 -110 -5 -41 -13 -106 -17 -145 -3 -38 -8 -83 -9
-100 -17 -165 -20 -523 -20 -2060 0 -1574 3 -1910 20 -2070 2 -22 7 -67 10
-100 18 -191 60 -451 96 -608 12 -49 22 -94 23 -100 6 -27 20 -77 43 -154 13
-45 26 -90 28 -100 6 -30 54 -161 106 -291 183 -458 493 -900 833 -1186 27
-22 66 -55 85 -72 169 -146 492 -339 751 -450 263 -112 582 -208 860 -258 14
-3 39 -7 55 -10 82 -15 362 -53 450 -61 192 -16 286 -20 565 -20 274 0 465 6
590 19 19 3 64 7 100 11 36 3 76 8 90 10 14 2 50 7 80 10 30 4 64 9 75 11 11
3 43 7 70 10 28 3 53 8 56 10 4 2 24 6 45 10 32 4 111 21 234 49 8 1 35 8 60
15 25 7 50 13 55 14 88 19 336 102 480 161 537 218 936 500 1312 927 128 146
314 434 413 642 53 112 128 297 135 338 2 9 8 25 13 35 5 10 21 63 35 118 23
85 35 140 63 270 5 26 31 220 41 310 10 90 10 605 0 712 -13 150 -65 241 -147
263 -27 7 -289 10 -802 8 -716 -3 -765 -4 -796 -21 -50 -27 -71 -84 -67 -177
5 -104 5 -367 1 -415 -41 -415 -152 -717 -364 -985 -80 -102 -247 -261 -306
-292 -12 -6 -23 -14 -26 -18 -3 -4 -35 -25 -72 -47 -206 -124 -425 -202 -717
-258 -13 -2 -49 -7 -80 -11 -31 -3 -59 -8 -62 -10 -3 -2 -46 -6 -95 -9 -49 -4
-100 -8 -114 -11 -36 -6 -413 -5 -490 1 -306 25 -557 83 -779 178 -104 44
-239 116 -288 153 -17 13 -35 24 -38 24 -10 0 -153 117 -219 180 -205 194
-376 482 -469 791 -29 94 -57 201 -63 239 -3 14 -7 36 -9 50 -16 78 -43 269
-52 365 -4 50 -8 851 -8 1780 0 1465 4 1839 19 1923 2 9 7 42 10 73 4 31 8 65
10 75 2 11 7 39 11 64 7 45 9 51 24 125 23 107 78 291 112 370 7 17 13 32 14
35 21 61 103 219 162 309 258 396 668 667 1168 772 33 7 65 14 70 15 6 1 29 5
53 8 77 11 127 18 152 21 50 7 278 18 365 18 94 0 341 -11 372 -17 10 -2 43
-7 73 -10 59 -7 85 -11 170 -27 97 -18 105 -20 122 -25 9 -3 25 -6 35 -8 10
-2 70 -21 133 -41 522 -169 890 -532 1057 -1046 46 -138 70 -242 88 -372 4
-27 8 -57 10 -66 8 -43 18 -230 19 -381 3 -192 11 -220 77 -249 37 -17 94 -18
811 -19 465 0 782 4 798 10 37 12 62 43 89 107 23 55 24 59 35 126 36 233 43
770 11 958 -2 12 -6 42 -9 67 -3 25 -8 57 -11 73 -3 15 -7 37 -9 50 -24 137
-76 328 -125 462 -174 478 -493 921 -891 1239 -47 37 -93 74 -103 83 -32 25
-219 148 -272 178 -27 16 -52 32 -55 35 -15 16 -274 142 -455 220 -26 11 -200
75 -256 94 -145 48 -355 104 -534 141 -44 9 -89 19 -100 21 -39 8 -361 53
-420 59 -137 12 -172 16 -220 21 -53 6 -791 15 -797 9z"/>
<path d="M123 12509 c-44 -9 -88 -43 -104 -81 -12 -28 -14 -827 -14 -5208 l0
-5175 20 -35 c38 -64 70 -74 229 -74 244 0 371 18 566 80 498 160 905 579
1051 1084 11 36 22 78 25 94 2 16 6 32 8 35 2 3 7 30 11 60 4 30 9 63 12 75 3
12 7 363 9 781 2 710 6 883 19 945 3 14 8 39 11 55 17 97 55 213 106 325 32
69 118 215 146 246 9 11 30 36 46 57 33 44 142 154 201 202 199 161 454 272
720 311 28 4 628 8 1335 9 1433 3 1335 -2 1382 72 l23 38 1 696 c1 547 -1 704
-11 733 -17 49 -60 93 -99 102 -17 4 -602 8 -1301 9 -698 1 -1292 5 -1320 9
-184 27 -305 64 -470 146 -246 123 -452 316 -592 555 -9 16 -60 118 -92 185
-4 8 -20 53 -34 100 -46 143 -64 264 -64 427 -2 398 135 731 417 1014 242 243
535 383 870 415 41 4 777 8 1635 8 l1560 1 38 23 c76 48 72 -2 72 832 0 731 0
746 -20 780 -12 19 -36 43 -55 55 -35 20 -35 20 -3170 20 -1725 1 -3149 -2
-3167 -6z"/>
</g>
</svg>
