<?xml version="1.0" encoding="UTF-8"?>
<svg id="Layer_1" data-name="Layer 1" xmlns="http://www.w3.org/2000/svg" viewBox="0 0 1827.69 1096.87">
  <defs>
    <style>
      .cls-1 {
        stroke-width: 0px;
      }
    </style>
  </defs>
  <g>
    <path class="cls-1" d="M318.17,1077.48c-11.86,0-17.77-6.46-17.77-19.39V38.77c0-12.93,5.91-19.39,17.77-19.39h618.7c11.84,0,17.77,6.46,17.77,19.39v132.46c0,12.92-5.93,19.39-17.77,19.39h-299.66c-78.96,0-142.96,64.01-142.96,142.96h0c0,78.96,64.01,142.96,142.96,142.96h238.27c11.84,0,17.77,6.46,17.77,19.38v127.62c0,11.86-5.93,17.77-17.77,17.77h-238.27c-78.96,0-142.96,64.01-142.96,142.96v130.85c0,89.66-72.69,162.35-162.35,162.35h-13.73Z"/>
    <path class="cls-1" d="M1403.65,1096.87c-136.78,0-241.5-33.65-314.2-100.96-72.7-67.29-109.04-166.64-109.04-298.05v-297.24c0-132.46,36.6-232.34,109.85-299.66C1163.49,33.67,1267.96,0,1403.65,0c92.61,0,172.29,15.09,239.08,45.23,66.76,30.16,116.31,73.25,148.62,129.23,32.31,56.01,43.06,122.24,32.31,198.7-1.09,5.4-2.98,10.5-5.65,15.35-2.7,4.85-7.27,7.27-13.73,7.27h-156.69c-12.92,0-18.86-6.46-17.77-19.39,2.14-65.68-15.35-116.56-52.5-152.66-37.15-36.07-93.97-54.12-170.43-54.12s-131.66,19.39-172.04,58.15c-40.39,38.77-60.58,97.48-60.58,176.08v289.16c0,78.62,20.19,137.31,60.58,176.08,40.39,38.77,97.73,58.15,172.04,58.15,78.6,0,136.75-18.58,174.46-55.73,37.69-37.15,53.84-87.49,48.46-151.04-1.09-12.92,4.85-19.38,17.77-19.38h155.08c11.84,0,18.83,7.54,21,22.61,7.52,75.4-5.12,141.1-37.96,197.08-32.86,56.01-81.86,99.35-147,130.04-65.17,30.69-143.52,46.04-235.04,46.04Z"/>
  </g>
  <rect class="cls-1" x="0" y="19.39" width="463.2" height="153.55" rx="22.01" ry="22.01"/>
  <rect class="cls-1" x="1644.02" y="466.38" width="164.1" height="164.1" rx="30.65" ry="30.65"/>
</svg>