<?xml version="1.0" encoding="UTF-8"?>
<svg id="Layer_1" data-name="Layer 1" xmlns="http://www.w3.org/2000/svg" viewBox="0 0 1445.24 1096.87">
  <defs>
    <style>
      .cls-1 {
        stroke-width: 0px;
      }
    </style>
  </defs>
  <path class="cls-1" d="M17.77,1077.48c-11.86,0-17.77-6.46-17.77-19.39V38.77c0-12.93,5.91-19.39,17.77-19.39h618.7c11.84,0,17.77,6.46,17.77,19.39v132.46c0,12.92-5.93,19.39-17.77,19.39h-299.66c-78.96,0-142.96,64.01-142.96,142.96h0c0,78.96,64.01,142.96,142.96,142.96h238.27c11.84,0,17.77,6.46,17.77,19.38v127.62c0,11.86-5.93,17.77-17.77,17.77h-238.27c-78.96,0-142.96,64.01-142.96,142.96v130.85c0,89.66-72.69,162.35-162.35,162.35h-13.73,0Z"/>
  <path class="cls-1" d="M1049.37,1096.87c-127.69,0-225.46-33.65-293.33-100.96-67.87-67.29-101.8-166.64-101.8-298.05v-297.24c0-132.46,34.17-232.34,102.55-299.66C825.16,33.67,922.69,0,1049.37,0c86.46,0,160.85,15.09,223.2,45.23,62.33,30.16,108.58,73.25,138.75,129.23,30.16,56.01,40.2,122.24,30.16,198.7-1.02,5.4-2.78,10.5-5.27,15.35-2.52,4.85-6.79,7.27-12.82,7.27h-146.28c-12.06,0-17.61-6.46-16.59-19.39,2-65.68-14.33-116.56-49.01-152.66-34.68-36.07-87.73-54.12-159.11-54.12s-122.91,19.39-160.61,58.15c-37.71,38.77-56.56,97.48-56.56,176.08v289.16c0,78.62,18.85,137.31,56.56,176.08,37.71,38.77,91.24,58.15,160.61,58.15,73.38,0,127.67-18.58,162.87-55.73,35.19-37.15,50.26-87.49,45.24-151.04-1.02-12.92,4.53-19.38,16.59-19.38h144.78c11.05,0,17.58,7.54,19.61,22.61,7.02,75.4-4.78,141.1-35.44,197.08-30.68,56.01-76.42,99.35-137.24,130.04-60.84,30.69-133.99,46.04-219.43,46.04v.02Z"/>
</svg>